<?xml version="1.0" encoding="utf-8"?>
<!-- Generator: Adobe Illustrator 22.1.0, SVG Export Plug-In . SVG Version: 6.00 Build 0)  -->
<svg version="1.1" id="Layer_1" xmlns="http://www.w3.org/2000/svg" xmlns:xlink="http://www.w3.org/1999/xlink" x="0px" y="0px"
	 viewBox="0 0 91.3 92.5" style="enable-background:new 0 0 91.3 92.5;" xml:space="preserve">
<path d="M26.4,92.5c7.5,0,14.5-3.3,19.2-8.7c4.8,5.4,11.7,8.7,19.2,8.7c14,0,25.5-11.3,25.8-25.3c0.1-3.6-2.8-6.6-6.4-6.7
	c-3.7-0.1-6.6,2.8-6.7,6.4c-0.1,6.9-5.8,12.4-12.7,12.4c-5.8,0-10.9-3.9-12.3-9.6c-0.2-0.9-0.4-1.9-0.4-2.9c0-0.1,0-0.2,0-0.3l0,0
	c0-2.2,0.6-4.4,1.8-6.2l7.7-12.1c2.2-3.4-0.3-7.8-4.3-7.8H33.8c-4,0-6.4,4.4-4.3,7.8l7.7,12.3c1.2,1.9,1.8,4,1.8,6.2l0,0l0,0
	c0,0.1,0,0.2,0,0.3c0,1-0.1,1.9-0.4,2.8c-1.5,5.6-6.5,9.6-12.3,9.6c-6.9,0-12.6-5.6-12.7-12.4c0-3.6-3-6.5-6.6-6.4s-6.5,3.1-6.4,6.7
	C0.9,81.2,12.4,92.5,26.4,92.5z"/>
<path d="M90.6,20.6c0-5.2-4.2-9.5-9.5-9.5c-5.2,0-9.5,4.2-9.5,9.5c0,5.2,4.2,9.5,9.5,9.5C86.4,30.1,90.6,25.9,90.6,20.6z"/>
<g>
	<path d="M20.9,0.3C9.7,0.3,0.6,9.4,0.6,20.6c0,0.4,0,0.8,0,1.2c0,0.2,0,0.5,0,0.8v29.1c0,3.6,2.9,6.5,6.5,6.5
		c3.6,0,6.5-2.9,6.5-6.5V39.6c2.3,0.9,4.7,1.4,7.3,1.4c11.2,0,20.3-9.1,20.3-20.3S32.1,0.3,20.9,0.3z M20.9,28c-4,0-7.3-3.3-7.3-7.3
		c0-4,3.3-7.3,7.3-7.3c4,0,7.3,3.3,7.3,7.3C28.2,24.7,25,28,20.9,28z"/>
</g>
</svg>
